<svg xmlns="http://www.w3.org/2000/svg" viewBox="0 0 39.08 25.40" fill="currentColor" aria-hidden="true" focusable="false">
  <path d="M16.58 11.26C16.58 9.71 16.74 8.19 17.19 6.70C18.00 4.06 19.60 2.12 22.18 1.05C23.63 0.45 25.14 0.20 26.69 0.09C28.00 0.00 29.31 0.08 30.60 0.28C32.48 0.57 34.24 1.19 35.71 2.45C36.77 3.35 37.53 4.46 38.05 5.75C38.69 7.31 38.93 8.95 39.00 10.62C39.08 12.55 38.87 14.45 38.25 16.29C37.55 18.35 36.28 19.98 34.37 21.06C33.32 21.66 32.19 22.03 31.00 22.24C29.81 22.45 28.61 22.57 27.41 22.53C26.09 22.49 24.79 22.34 23.51 21.99C22.39 21.68 21.35 21.21 20.41 20.54C19.18 19.67 18.28 18.52 17.67 17.14C16.83 15.27 16.58 13.29 16.58 11.26L16.58 11.26Z"/>
  <path d="M7.31 0.05C11.96 0.06 15.09 3.96 15.07 9.86C15.06 16.51 10.90 22.53 4.11 25.40L3.74 24.64C6.38 22.89 8.02 20.26 8.02 18.13C8.03 13.36 0.00 13.34 0.02 7.06C0.02 3.17 3.17 0.04 7.31 0.05Z"/>
</svg>
